<svg x="0" y="0" width="1400" height="700" viewBox="0 0 1633.3333333333335 816.6666666666667" xmlns="http://www.w3.org/2000/svg" xmlns:xlink="http://www.w3.org/1999/xlink" xmlns:fi="http://pattern.flaticon.com/"><rect x="0px" y="0px" width="100%" height="100%" opacity="0" fill="#ffffff"/><defs><g transform="matrix(0.2036929577589035 0.06267476081848145 -0.06267476081848145 0.2036929577589035 141.4779815673828 6.229281902313232)" id="L1_0"><path d="M150.99,56.513c-14.093,9.912-30.066,21.147-38.624,39.734c-14.865,32.426,30.418,67.798,32.353,69.288   c0.45,0.347,0.988,0.519,1.525,0.519c0.57,0,1.141-0.195,1.605-0.583c0.899-0.752,1.154-2.029,0.614-3.069   c-0.164-0.316-16.418-31.888-15.814-54.539c0.214-7.888,11.254-16.837,22.942-26.312c10.705-8.678,22.839-18.514,29.939-30.02   c15.586-25.327-1.737-50.231-1.914-50.479c-0.688-0.966-1.958-1.317-3.044-0.84c-1.085,0.478-1.686,1.652-1.438,2.811   c0.035,0.164,3.404,16.633-5.97,33.6C169.301,43.634,160.816,49.603,150.99,56.513z" id="XMLID_8_"/><path d="M210.365,67.682c0.994-0.749,1.286-2.115,0.684-3.205c-0.602-1.09-1.913-1.571-3.077-1.129   c-2.394,0.91-58.627,22.585-58.627,48.776c0,18.053,7.712,27.591,13.343,34.556c2.209,2.731,4.116,5.09,4.744,7.104   c1.769,5.804-2.422,16.294-4.184,19.846c-0.508,1.022-0.259,2.259,0.605,3.005c0.467,0.403,1.05,0.607,1.634,0.607   c0.497,0,0.996-0.148,1.427-0.448c0.967-0.673,23.63-16.696,19.565-36.001c-1.514-7.337-5.12-12.699-8.302-17.43   c-4.929-7.329-8.489-12.624-3.088-22.403C181.419,89.556,210.076,67.899,210.365,67.682z" id="XMLID_9_"/><path d="M63.99,177.659c-0.964,2.885-0.509,5.75,1.315,8.283c6.096,8.462,27.688,13.123,60.802,13.123   c0.002,0,0.003,0,0.004,0c4.487,0,9.224-0.088,14.076-0.262c52.943-1.896,72.58-18.389,73.39-19.09   c0.883-0.764,1.119-2.037,0.57-3.067c-0.549-1.029-1.733-1.546-2.864-1.235c-18.645,5.091-53.463,6.898-77.613,6.898   c-27.023,0-40.785-1.946-44.154-3.383c1.729-2.374,12.392-6.613,25.605-9.212c1.263-0.248,2.131-1.414,2.006-2.695   c-0.125-1.281-1.201-2.258-2.488-2.258C106.893,164.762,68.05,165.384,63.99,177.659z" id="XMLID_10_"/><path d="M241.148,160.673c-10.92,0-21.275,5.472-21.711,5.705c-1.01,0.541-1.522,1.699-1.245,2.811   c0.278,1.111,1.277,1.892,2.423,1.893c0.232,0.001,23.293,0.189,25.382,13.365c1.85,11.367-21.82,29.785-31.097,35.923   c-1.002,0.663-1.391,1.945-0.926,3.052c0.395,0.943,1.314,1.533,2.304,1.533c0.173,0,0.348-0.018,0.522-0.056   c2.202-0.47,53.855-11.852,48.394-41.927C261.862,164.541,250.278,160.673,241.148,160.673z" id="XMLID_11_"/><path d="M205.725,216.69c0.18-0.964-0.221-1.944-1.023-2.506l-12.385-8.675c-0.604-0.423-1.367-0.556-2.076-0.368   c-0.129,0.034-13.081,3.438-31.885,5.526c-7.463,0.837-15.822,1.279-24.175,1.279c-18.799,0-31.091-2.209-32.881-3.829   c-0.237-0.455-0.162-0.662-0.12-0.777c0.325-0.905,2.068-1.98,3.192-2.405c1.241-0.459,1.91-1.807,1.524-3.073   c-0.385-1.266-1.69-2.012-2.978-1.702c-12.424,2.998-18.499,7.191-18.057,12.461c0.785,9.343,22.428,14.139,40.725,15.408   c2.631,0.18,5.477,0.272,8.456,0.272c0.002,0,0.003,0,0.005,0c30.425,0,69.429-9.546,69.819-9.643   C204.818,218.423,205.544,217.654,205.725,216.69z" id="XMLID_12_"/><path d="M112.351,236.745c0.938-0.611,1.354-1.77,1.021-2.838c-0.332-1.068-1.331-1.769-2.453-1.755   c-1.665,0.044-16.292,0.704-17.316,10.017c-0.31,2.783,0.487,5.325,2.37,7.556c5.252,6.224,19.428,9.923,43.332,11.31   c2.828,0.169,5.7,0.254,8.539,0.254c30.39,0,50.857-9.515,51.714-9.92c0.831-0.393,1.379-1.209,1.428-2.127   c0.049-0.917-0.409-1.788-1.193-2.267l-15.652-9.555c-0.543-0.331-1.193-0.441-1.813-0.314c-0.099,0.021-10.037,2.082-25.035,4.119   c-2.838,0.385-6.392,0.581-10.562,0.581c-14.982,0-31.646-2.448-34.842-4.05C111.843,237.455,111.902,237.075,112.351,236.745z" id="XMLID_13_"/><path d="M133.681,290.018c69.61-0.059,106.971-12.438,114.168-20.228c2.548-2.757,2.823-5.366,2.606-7.07   c-0.535-4.194-4.354-6.761-4.788-7.04c-1.045-0.672-2.447-0.496-3.262,0.444c-0.813,0.941-0.832,2.314-0.016,3.253   c0.439,0.565,0.693,1.51-0.591,2.795c-2.877,2.687-31.897,10.844-80.215,13.294c-6.619,0.345-13.561,0.519-20.633,0.52   c-43.262,0-74.923-5.925-79.079-9.379c1.603-2.301,12.801-5.979,24.711-8.058c1.342-0.234,2.249-1.499,2.041-2.845   c-0.208-1.346-1.449-2.273-2.805-2.096c-0.336,0.045-1.475,0.115-2.796,0.195c-19.651,1.2-42.36,3.875-43.545,13.999   c-0.36,3.086,0.557,5.886,2.726,8.324c5.307,5.963,20.562,13.891,91.475,13.891C133.68,290.018,133.68,290.018,133.681,290.018z" id="XMLID_14_"/><path d="M261.522,271.985c-0.984-0.455-2.146-0.225-2.881,0.567c-0.103,0.11-10.568,11.054-42.035,17.48   c-12.047,2.414-34.66,3.638-67.211,3.638c-32.612,0-63.643-1.283-63.953-1.296c-1.296-0.063-2.405,0.879-2.581,2.155   c-0.177,1.276,0.645,2.477,1.897,2.775c0.323,0.077,32.844,7.696,77.31,7.696c21.327,0,42.08-1.733,61.684-5.151   c36.553-6.408,39.112-24.533,39.203-25.301C263.082,273.474,262.504,272.44,261.522,271.985z" id="XMLID_15_"/></g><g transform="matrix(0.2036929577589035 0.06267476081848145 -0.06267476081848145 0.2036929577589035 -3.5220179557800293 226.2292938232422)"><path d="M150.99,56.513c-14.093,9.912-30.066,21.147-38.624,39.734c-14.865,32.426,30.418,67.798,32.353,69.288   c0.45,0.347,0.988,0.519,1.525,0.519c0.57,0,1.141-0.195,1.605-0.583c0.899-0.752,1.154-2.029,0.614-3.069   c-0.164-0.316-16.418-31.888-15.814-54.539c0.214-7.888,11.254-16.837,22.942-26.312c10.705-8.678,22.839-18.514,29.939-30.02   c15.586-25.327-1.737-50.231-1.914-50.479c-0.688-0.966-1.958-1.317-3.044-0.84c-1.085,0.478-1.686,1.652-1.438,2.811   c0.035,0.164,3.404,16.633-5.97,33.6C169.301,43.634,160.816,49.603,150.99,56.513z"/><path d="M210.365,67.682c0.994-0.749,1.286-2.115,0.684-3.205c-0.602-1.09-1.913-1.571-3.077-1.129   c-2.394,0.91-58.627,22.585-58.627,48.776c0,18.053,7.712,27.591,13.343,34.556c2.209,2.731,4.116,5.09,4.744,7.104   c1.769,5.804-2.422,16.294-4.184,19.846c-0.508,1.022-0.259,2.259,0.605,3.005c0.467,0.403,1.05,0.607,1.634,0.607   c0.497,0,0.996-0.148,1.427-0.448c0.967-0.673,23.63-16.696,19.565-36.001c-1.514-7.337-5.12-12.699-8.302-17.43   c-4.929-7.329-8.489-12.624-3.088-22.403C181.419,89.556,210.076,67.899,210.365,67.682z"/><path d="M63.99,177.659c-0.964,2.885-0.509,5.75,1.315,8.283c6.096,8.462,27.688,13.123,60.802,13.123   c0.002,0,0.003,0,0.004,0c4.487,0,9.224-0.088,14.076-0.262c52.943-1.896,72.58-18.389,73.39-19.09   c0.883-0.764,1.119-2.037,0.57-3.067c-0.549-1.029-1.733-1.546-2.864-1.235c-18.645,5.091-53.463,6.898-77.613,6.898   c-27.023,0-40.785-1.946-44.154-3.383c1.729-2.374,12.392-6.613,25.605-9.212c1.263-0.248,2.131-1.414,2.006-2.695   c-0.125-1.281-1.201-2.258-2.488-2.258C106.893,164.762,68.05,165.384,63.99,177.659z"/><path d="M241.148,160.673c-10.92,0-21.275,5.472-21.711,5.705c-1.01,0.541-1.522,1.699-1.245,2.811   c0.278,1.111,1.277,1.892,2.423,1.893c0.232,0.001,23.293,0.189,25.382,13.365c1.85,11.367-21.82,29.785-31.097,35.923   c-1.002,0.663-1.391,1.945-0.926,3.052c0.395,0.943,1.314,1.533,2.304,1.533c0.173,0,0.348-0.018,0.522-0.056   c2.202-0.47,53.855-11.852,48.394-41.927C261.862,164.541,250.278,160.673,241.148,160.673z"/><path d="M205.725,216.69c0.18-0.964-0.221-1.944-1.023-2.506l-12.385-8.675c-0.604-0.423-1.367-0.556-2.076-0.368   c-0.129,0.034-13.081,3.438-31.885,5.526c-7.463,0.837-15.822,1.279-24.175,1.279c-18.799,0-31.091-2.209-32.881-3.829   c-0.237-0.455-0.162-0.662-0.12-0.777c0.325-0.905,2.068-1.98,3.192-2.405c1.241-0.459,1.91-1.807,1.524-3.073   c-0.385-1.266-1.69-2.012-2.978-1.702c-12.424,2.998-18.499,7.191-18.057,12.461c0.785,9.343,22.428,14.139,40.725,15.408   c2.631,0.18,5.477,0.272,8.456,0.272c0.002,0,0.003,0,0.005,0c30.425,0,69.429-9.546,69.819-9.643   C204.818,218.423,205.544,217.654,205.725,216.69z"/><path d="M112.351,236.745c0.938-0.611,1.354-1.77,1.021-2.838c-0.332-1.068-1.331-1.769-2.453-1.755   c-1.665,0.044-16.292,0.704-17.316,10.017c-0.31,2.783,0.487,5.325,2.37,7.556c5.252,6.224,19.428,9.923,43.332,11.31   c2.828,0.169,5.7,0.254,8.539,0.254c30.39,0,50.857-9.515,51.714-9.92c0.831-0.393,1.379-1.209,1.428-2.127   c0.049-0.917-0.409-1.788-1.193-2.267l-15.652-9.555c-0.543-0.331-1.193-0.441-1.813-0.314c-0.099,0.021-10.037,2.082-25.035,4.119   c-2.838,0.385-6.392,0.581-10.562,0.581c-14.982,0-31.646-2.448-34.842-4.05C111.843,237.455,111.902,237.075,112.351,236.745z"/><path d="M133.681,290.018c69.61-0.059,106.971-12.438,114.168-20.228c2.548-2.757,2.823-5.366,2.606-7.07   c-0.535-4.194-4.354-6.761-4.788-7.04c-1.045-0.672-2.447-0.496-3.262,0.444c-0.813,0.941-0.832,2.314-0.016,3.253   c0.439,0.565,0.693,1.51-0.591,2.795c-2.877,2.687-31.897,10.844-80.215,13.294c-6.619,0.345-13.561,0.519-20.633,0.52   c-43.262,0-74.923-5.925-79.079-9.379c1.603-2.301,12.801-5.979,24.711-8.058c1.342-0.234,2.249-1.499,2.041-2.845   c-0.208-1.346-1.449-2.273-2.805-2.096c-0.336,0.045-1.475,0.115-2.796,0.195c-19.651,1.2-42.36,3.875-43.545,13.999   c-0.36,3.086,0.557,5.886,2.726,8.324c5.307,5.963,20.562,13.891,91.475,13.891C133.68,290.018,133.68,290.018,133.681,290.018z"/><path d="M261.522,271.985c-0.984-0.455-2.146-0.225-2.881,0.567c-0.103,0.11-10.568,11.054-42.035,17.48   c-12.047,2.414-34.66,3.638-67.211,3.638c-32.612,0-63.643-1.283-63.953-1.296c-1.296-0.063-2.405,0.879-2.581,2.155   c-0.177,1.276,0.645,2.477,1.897,2.775c0.323,0.077,32.844,7.696,77.31,7.696c21.327,0,42.08-1.733,61.684-5.151   c36.553-6.408,39.112-24.533,39.203-25.301C263.082,273.474,262.504,272.44,261.522,271.985z"/></g><g transform="matrix(0.09702923893928528 0 0 0.09702923893928528 235.1605224609375 300.1605224609375)" id="L1_1"><path d="m437 146h-71v-71c0-41.355469-33.644531-75-75-75h-70c-41.355469 0-75 33.644531-75 75v71h-71c-41.355469 0-75 33.644531-75 75v70c0 41.355469 33.644531 75 75 75h71v71c0 41.355469 33.644531 75 75 75h70c41.355469 0 75-33.644531 75-75v-71h71c41.355469 0 75-33.644531 75-75v-70c0-41.355469-33.644531-75-75-75zm-362 190c-24.8125 0-45-20.1875-45-45v-70c0-24.8125 20.1875-45 45-45h181c8.285156 0 15-6.714844 15-15s-6.714844-15-15-15h-80v-71c0-24.8125 20.1875-45 45-45h70c24.8125 0 45 20.1875 45 45v166h-175c-8.285156 0-15 6.714844-15 15v80zm407-45c0 24.8125-20.1875 45-45 45h-181c-8.285156 0-15 6.714844-15 15s6.714844 15 15 15h80v71c0 24.8125-20.1875 45-45 45h-70c-24.8125 0-45-20.1875-45-45v-166h175c8.285156 0 15-6.714844 15-15v-80h71c24.8125 0 45 20.1875 45 45zm0 0"/><path d="m236 90c0 8.285156-6.714844 15-15 15s-15-6.714844-15-15 6.714844-15 15-15 15 6.714844 15 15zm0 0"/><path d="m306 422c0 8.285156-6.714844 15-15 15s-15-6.714844-15-15 6.714844-15 15-15 15 6.714844 15 15zm0 0"/></g><g transform="matrix(1.7022532224655151 -0.4863581359386444 0.4863581359386444 1.7022532224655151 63.13835906982422 184.04449462890625)" id="L1_2"><path d="m18 20c-1.378 0-2.5-1.121-2.5-2.5s1.122-2.5 2.5-2.5 2.5 1.121 2.5 2.5-1.122 2.5-2.5 2.5zm0-4c-.827 0-1.5.673-1.5 1.5s.673 1.5 1.5 1.5 1.5-.673 1.5-1.5-.673-1.5-1.5-1.5z"/><path d="m18.775 24h-1.55c-.51 0-.932-.388-.98-.902l-.124-1.273c-.29-.133-.567-.299-.829-.495l-1.121.521c-.467.219-1.013.039-1.268-.415l-.774-1.38c-.248-.443-.129-1.003.275-1.303l1-.741c-.019-.156-.033-.329-.033-.511s.014-.354.033-.511l-1-.741c-.405-.3-.523-.859-.276-1.302l.775-1.382c.254-.453.798-.628 1.267-.415l1.121.521c.262-.196.539-.362.829-.495l.124-1.274c.049-.514.471-.902.981-.902h1.55c.51 0 .932.388.98.902l.124 1.273c.29.133.567.299.829.495l1.121-.521c.468-.217 1.014-.038 1.268.415l.774 1.38c.248.443.129 1.003-.275 1.303l-1 .741c.019.156.033.329.033.511s-.014.354-.033.511l1 .741c.405.3.523.859.276 1.302l-.775 1.382c-.253.453-.796.63-1.267.415l-1.121-.521c-.262.196-.539.362-.829.495l-.124 1.274c-.049.514-.471.902-.981.902zm-3.412-3.755c.117 0 .233.041.326.121.329.283.691.5 1.076.645.178.066.303.229.322.419l.153 1.571 1.535-.001.138-1.57c.019-.189.144-.353.322-.419.385-.145.747-.361 1.076-.645.149-.13.359-.158.537-.074l1.402.651.749-1.379-1.24-.929c-.151-.111-.227-.299-.196-.485.036-.212.065-.427.065-.65s-.029-.438-.065-.65c-.031-.187.044-.374.196-.485l1.241-.92-.776-1.391-1.376.653c-.178.082-.388.054-.537-.074-.329-.283-.691-.5-1.076-.645-.178-.066-.303-.229-.322-.419l-.153-1.571-1.535.002-.138 1.57c-.019.189-.144.353-.322.419-.385.145-.747.361-1.076.645-.15.128-.36.156-.537.074l-1.402-.651-.749 1.379 1.24.929c.151.111.227.299.196.485-.036.212-.065.427-.065.65s.029.438.065.65c.031.187-.044.374-.196.485l-1.241.92.776 1.391 1.376-.653c.067-.032.14-.048.211-.048z"/><path d="m6.5 10h-2c-.827 0-1.5-.673-1.5-1.5v-3c0-.827.673-1.5 1.5-1.5h2c.276 0 .5.224.5.5s-.224.5-.5.5h-2c-.276 0-.5.225-.5.5v3c0 .275.224.5.5.5h2c.276 0 .5.224.5.5s-.224.5-.5.5z"/><path d="m10 9c-.276 0-.5-.224-.5-.5v-3c0-.276.224-.5.5-.5s.5.224.5.5v3c0 .276-.224.5-.5.5z"/><path d="m11.5 7.5h-3c-.276 0-.5-.224-.5-.5s.224-.5.5-.5h3c.276 0 .5.224.5.5s-.224.5-.5.5z"/><path d="m15 9c-.276 0-.5-.224-.5-.5v-3c0-.276.224-.5.5-.5s.5.224.5.5v3c0 .276-.224.5-.5.5z"/><path d="m16.5 7.5h-3c-.276 0-.5-.224-.5-.5s.224-.5.5-.5h3c.276 0 .5.224.5.5s-.224.5-.5.5z"/><path d="m11.39 24h-8.89c-1.378 0-2.5-1.121-2.5-2.5v-19c0-1.379 1.122-2.5 2.5-2.5h15c1.378 0 2.5 1.121 2.5 2.5v6.09c0 .276-.224.5-.5.5s-.5-.224-.5-.5v-6.09c0-.827-.673-1.5-1.5-1.5h-15c-.827 0-1.5.673-1.5 1.5v19c0 .827.673 1.5 1.5 1.5h8.89c.276 0 .5.224.5.5s-.223.5-.5.5z"/></g><g transform="matrix(0.11936403065919876 0 0 0.11936403065919876 152.99998474121094 146)" id="L1_3"><path d="M153.821,358.226L0,274.337v-46.463l153.821-83.414v54.574L46.636,250.523l107.185,53.431    C153.821,303.954,153.821,358.226,153.821,358.226z" fill="#010002"/><path d="M180.094,387.584L282.103,115.08h32.227L212.084,387.584H180.094z" fill="#010002"/><path d="M348.843,358.226v-54.272l107.164-52.999l-107.164-52.59v-53.927l153.821,83.522v46.183    L348.843,358.226z" fill="#010002"/></g><g transform="matrix(0.11969396471977234 0.0418928898870945 -0.0418928898870945 0.11969396471977234 270.8280029296875 26.994380950927734)" id="L1_4"><path d="M349.657,18.343A8,8,0,0,0,344,16H120A56.064,56.064,0,0,0,64,72V440a56.064,56.064,0,0,0,56,56H392a56.063,56.063,0,0,0,56-56V120a8,8,0,0,0-2.343-5.657ZM352,43.313,420.687,112H392a40.045,40.045,0,0,1-40-40ZM120,32H336V72a56.063,56.063,0,0,0,56,56h40V352H80V72A40.045,40.045,0,0,1,120,32ZM392,480H120a40.045,40.045,0,0,1-40-40V368H432v72A40.045,40.045,0,0,1,392,480Z"/><path d="M256,400h16a8,8,0,0,0,0-16H256a24,24,0,0,0,0,48,8,8,0,0,1,0,16H240a8,8,0,0,0,0,16h16a24,24,0,0,0,0-48,8,8,0,0,1,0-16Z"/><path d="M320,400h16a8,8,0,0,0,0-16H320a24,24,0,0,0,0,48,8,8,0,0,1,0,16H304a8,8,0,0,0,0,16h16a24,24,0,0,0,0-48,8,8,0,0,1,0-16Z"/><path d="M200,400a10.708,10.708,0,0,1,4.59,1.058,8,8,0,0,0,6.82-14.474A26.581,26.581,0,0,0,200,384c-17.645,0-32,17.944-32,40s14.355,40,32,40a26.581,26.581,0,0,0,11.41-2.584,8,8,0,1,0-6.82-14.474A10.708,10.708,0,0,1,200,448c-8.673,0-16-10.991-16-24S191.327,400,200,400Z"/><circle cx="256" cy="200" r="8"/><circle cx="256" cy="232" r="8"/><path d="M152,224a8.009,8.009,0,0,1,8,8v32a24.027,24.027,0,0,0,24,24,8,8,0,0,0,0-16,8.009,8.009,0,0,1-8-8V232a23.9,23.9,0,0,0-6.126-16A23.9,23.9,0,0,0,176,200V168a8.009,8.009,0,0,1,8-8,8,8,0,0,0,0-16,24.027,24.027,0,0,0-24,24v32a8.009,8.009,0,0,1-8,8,8,8,0,0,0,0,16Z"/><path d="M336,264a8.009,8.009,0,0,1-8,8,8,8,0,0,0,0,16,24.027,24.027,0,0,0,24-24V232a8.009,8.009,0,0,1,8-8,8,8,0,0,0,0-16,8.009,8.009,0,0,1-8-8V168a24.027,24.027,0,0,0-24-24,8,8,0,0,0,0,16,8.009,8.009,0,0,1,8,8v32a23.9,23.9,0,0,0,6.126,16A23.9,23.9,0,0,0,336,232Z"/></g><g transform="matrix(0.1171875 0 0 0.1171875 130 218)" id="L1_5"><path d="M349.657,18.343A8,8,0,0,0,344,16H120A56.063,56.063,0,0,0,64,72V440a56.063,56.063,0,0,0,56,56H392a56.063,56.063,0,0,0,56-56V120a8,8,0,0,0-2.343-5.657ZM352,43.313,420.687,112H392a40.045,40.045,0,0,1-40-40ZM120,32H336V72a56.063,56.063,0,0,0,56,56h40V352H80V72A40.045,40.045,0,0,1,120,32ZM392,480H120a40.045,40.045,0,0,1-40-40V368H432v72A40.045,40.045,0,0,1,392,480Z"/><path d="M240,384a8,8,0,0,0-8,8v48a8,8,0,0,1-16,0,8,8,0,0,0-16,0,24,24,0,0,0,48,0V392A8,8,0,0,0,240,384Z"/><path d="M288,400h16a8,8,0,0,0,0-16H288a24,24,0,0,0,0,48,8,8,0,0,1,0,16H272a8,8,0,0,0,0,16h16a24,24,0,0,0,0-48,8,8,0,0,1,0-16Z"/><circle cx="288" cy="216" r="8"/><circle cx="224" cy="216" r="8"/><circle cx="256" cy="216" r="8"/><path d="M152,224a8.009,8.009,0,0,1,8,8v32a24.028,24.028,0,0,0,24,24,8,8,0,0,0,0-16,8.009,8.009,0,0,1-8-8V232a23.9,23.9,0,0,0-6.126-16A23.9,23.9,0,0,0,176,200V168a8.009,8.009,0,0,1,8-8,8,8,0,0,0,0-16,24.028,24.028,0,0,0-24,24v32a8.009,8.009,0,0,1-8,8,8,8,0,0,0,0,16Z"/><path d="M336,264a8.009,8.009,0,0,1-8,8,8,8,0,0,0,0,16,24.028,24.028,0,0,0,24-24V232a8.009,8.009,0,0,1,8-8,8,8,0,0,0,0-16,8.009,8.009,0,0,1-8-8V168a24.028,24.028,0,0,0-24-24,8,8,0,0,0,0,16,8.009,8.009,0,0,1,8,8v32a23.9,23.9,0,0,0,6.126,16A23.9,23.9,0,0,0,336,232Z"/></g><g transform="matrix(0.1171875 0 0 0.1171875 259 203)" id="L1_6"><path d="m370.835938 117.042969c0-3.796875-3.523438-6.761719-6.300782-6.761719-.648437 0-1.296875.09375-1.757812.464844l-23.527344 15.28125c-2.128906 1.390625-2.871094 3.613281-2.871094 5.1875 0 1.574218.742188 3.796875 2.871094 5.1875l23.527344 15.28125c.460937.371094 1.109375.464844 1.757812.464844 2.777344 0 6.300782-2.964844 6.300782-6.761719 0-1.574219-.648438-2.964844-1.667969-3.613281l-16.304688-10.558594 16.304688-10.558594c1.015625-.648438 1.667969-2.039062 1.667969-3.613281zm0 0"/><path d="m417.425781 85.367188c-1.667969 0-3.152343.738281-3.890625 2.316406l-32.511718 66.777344c-.277344.554687-.464844 1.203124-.464844 1.761718 0 2.3125 2.039062 4.90625 5.191406 4.90625 1.757812 0 3.519531-.925781 4.167969-2.3125l32.601562-66.78125c.277344-.554687.371094-1.203125.371094-1.761718-.003906-2.960938-2.875-4.90625-5.464844-4.90625zm0 0"/><path d="m464.199219 126.027344-23.523438-15.28125c-.464843-.371094-1.113281-.464844-1.761719-.464844-2.777343 0-6.296874 2.964844-6.296874 6.761719 0 1.574219.648437 2.964843 1.667968 3.613281l16.300782 10.558594-16.300782 10.558594c-1.019531.648437-1.667968 2.039062-1.667968 3.613281 0 3.796875 3.519531 6.761719 6.296874 6.761719.648438 0 1.296876-.09375 1.761719-.464844l23.523438-15.28125c2.132812-1.390625 2.871093-3.613282 2.871093-5.1875 0-1.574219-.738281-3.796875-2.871093-5.1875zm0 0"/><path d="m475.734375 37.289062h-161.484375c-8.34375-21.78125-29.472656-37.289062-54.15625-37.289062h-108.3125c-31.957031 0-57.960938 26.003906-57.960938 57.960938v65.816406c-6.460937 5.566406-9.464843 14.273437-7.875 23.039062l4.257813 23.429688c1.53125 8.046875 5.804687 12.183594 9.117187 14.234375 3.707032 2.292969 7.820313 3.050781 11.597657 3.070312v4.164063c0 21.125 12.324219 44.40625 33.8125 63.878906 4.046875 3.664062 8.253906 7.042969 12.542969 10.097656v12.5625c0 3.828125-2.730469 7.113282-6.496094 7.8125-.175782.03125-.347656.070313-.519532.113282-.128906.035156-13.003906 3.390624-29.835937 8.164062h-54.996094c-6.183593 0-12.148437 2.597656-16.363281 7.121094-4.214844 4.523437-6.378906 10.660156-5.9375 16.828125l.148438 2.117187c-24.597657 12.335938-40.074219 34.453125-41.550782 59.589844-.003906.105469-.007812.210938-.011718.316406l-1.70703175 103.238282c-.09375005 7.570312 2.78906275 14.707031 8.10546875 20.09375 5.324219 5.386718 12.421875 8.351562 19.996094 8.351562h355.667969c7.570312 0 14.671874-2.964844 19.992187-8.351562 5.320313-5.386719 8.203125-12.519532 8.109375-20.125l-1.707031-103.207032c-.003907-.105468-.007813-.210937-.015625-.316406-1.515625-25.863281-17.851563-48.527344-43.703125-60.632812-.472657-.222657-.96875-.449219-1.480469-.679688l.027344-.394531c.4375-6.167969-1.726563-12.300781-5.9375-16.828125-4.214844-4.523438-10.179688-7.121094-16.363282-7.121094h-51.238281c-16.828125-4.773438-29.707031-8.128906-29.835937-8.160156-.171875-.046875-.34375-.085938-.519532-.117188-3.765624-.699218-6.496093-3.984375-6.496093-7.8125v-12.558594c4.289062-3.058593 8.496093-6.4375 12.542969-10.101562 13.65625-12.375 23.613281-26.289062 29.054687-40.210938h48.730469l-8.511719 34.355469c-1.417969 5.730469.855469 11.519531 5.792969 14.75 2.320312 1.519531 4.921875 2.273438 7.511718 2.273438 2.929688 0 5.84375-.960938 8.328126-2.871094l63.148437-48.507813h54.53125c19.761719 0 35.835937-16.074218 35.835937-35.835937v-106.421875c0-19.757812-16.074218-35.835938-35.835937-35.835938zm-174.757813 99.445313c2.867188-.976563 5.582032-1.378906 7.351563-1.539063 2.355469 2.089844 3.464844 5.53125 2.847656 8.9375l-4.234375 23.3125c-.617187 3.253907-1.867187 4.027344-2.277344 4.28125-.871093.539063-2.15625.816407-3.695312.832032zm-192.15625-78.773437c0-23.6875 19.273438-42.960938 42.960938-42.960938h108.316406c23.6875 0 42.960938 19.273438 42.960938 42.960938v62.839843c-3.710938.65625-8.332032 1.914063-12.84375 4.320313v-45.699219c0-16.433594-13.371094-29.804687-29.804688-29.804687h-20.269531c-7.027344 0-13.890625 2.449218-19.332031 6.894531l-1.984375 1.625c-3.625 2.964843-8.203125 4.597656-12.886719 4.597656s-9.257812-1.632813-12.882812-4.59375l-1.988282-1.628906c-5.4375-4.445313-12.304687-6.894531-19.332031-6.894531h-20.265625c-16.433594 0-29.804688 13.367187-29.804688 29.804687v45.695313c-4.511718-2.402344-9.132812-3.664063-12.84375-4.316407zm-1.605468 113.765624c-.410156-.253906-1.660156-1.027343-2.265625-4.21875l-4.246094-23.371093c-.617187-3.40625.492187-6.84375 2.839844-8.9375 1.769531.160156 4.488281.554687 7.359375 1.53125l.007812 35.828125c-1.535156-.015625-2.820312-.292969-3.695312-.832032zm-66.359375 319.839844c0 1.882813.257812 3.703125.734375 5.433594h-13.484375c-3.53125 0-6.839844-1.382812-9.324219-3.894531-2.480469-2.511719-3.820312-5.839844-3.78125-9.335938l1.707031-103.042969c1.109375-18.007812 11.089844-33.621093 27.742188-43.832031l9.15625 128.472657c.167969 2.359374.707031 4.613281 1.550781 6.710937-8.28125 2.609375-14.300781 10.359375-14.300781 19.488281zm313.65625-26.199218 9.304687-130.542969c18.820313 10.097656 30.167969 26.625 31.355469 45.902343l1.707031 103.011719c.039063 3.527344-1.304687 6.855469-3.78125 9.367188-2.484375 2.511719-5.792968 3.894531-9.324218 3.894531h-13.484376c.480469-1.730469.734376-3.550781.734376-5.433594 0-10.363281-7.753907-18.945312-17.765626-20.253906.675782-1.878906 1.109376-3.871094 1.253907-5.945312zm1.511719 26.199218c0 2.996094-2.4375 5.433594-5.429688 5.433594h-289.308594c-2.992187 0-5.429687-2.4375-5.429687-5.433594 0-2.992187 2.4375-5.429687 5.429687-5.429687h289.308594c2.992188 0 5.429688 2.4375 5.429688 5.429687zm-7.941407-179.878906c1.40625 1.511719 2.101563 3.476562 1.953125 5.539062l-10.484375 147.078126c-.273437 3.832031-3.496093 6.832031-7.339843 6.832031h-256.304688c-3.839844 0-7.0625-3-7.339844-6.835938l-10.480468-147.074219c-.148438-2.0625.546874-4.027343 1.953124-5.539062 1.410157-1.511719 3.320313-2.34375 5.386719-2.34375h277.269531c2.0625 0 3.976563.832031 5.386719 2.34375zm-101.886719-17.34375h-80.511718c4.101562-4.171875 6.589844-9.882812 6.589844-16.089844v-3.355468c11.824218 6.121093 23.574218 9.554687 33.664062 9.554687s21.839844-3.433594 33.667969-9.554687v3.355468c0 6.207032 2.488281 11.917969 6.589843 16.089844zm10.878907-49.867188c-16.746094 15.171876-36.816407 24.976563-51.136719 24.976563-14.316406 0-34.386719-9.804687-51.132812-24.976563-18.359376-16.628906-28.886719-35.863281-28.886719-52.765624l-.015625-47.25c.097656 0 .195312.003906.292968.003906 1.355469 0 2.722657-.265625 4.03125-.8125 3.910157-1.632813 6.4375-5.425782 6.4375-9.660156v-54.570313c0-8.164063 6.640626-14.804687 14.804688-14.804687h20.269531c3.574219 0 7.066407 1.246093 9.832031 3.507812l1.992188 1.628906c6.296875 5.144532 14.242188 7.980469 22.375 7.980469s16.082031-2.835937 22.378906-7.984375l1.988282-1.625c2.765624-2.261719 6.261718-3.507812 9.835937-3.507812h20.265625c8.164062 0 14.808594 6.640624 14.808594 14.804687v54.570313c0 4.238281 2.523437 8.027343 6.4375 9.660156 1.398437.585937 2.871094.847656 4.320312.808594l-.011718 47.253906c.003906 16.898437-10.527344 36.132812-28.886719 52.761718zm239.496093-64.929687c0 11.488281-9.34375 20.835937-20.835937 20.835937h-57.078125c-1.652344 0-3.257812.546876-4.566406 1.554688l-62.210938 47.785156 9.917969-40.035156c.554687-2.238281.050781-4.609375-1.371094-6.425781-1.421875-1.816407-3.601562-2.878907-5.90625-2.878907h-54.222656c.441406-2.917968.667969-5.8125.667969-8.667968v-4.164063c3.773437-.019531 7.886718-.777343 11.59375-3.070312 3.316406-2.050781 7.589844-6.1875 9.128906-14.292969l4.246094-23.371094c1.59375-8.765625-1.417969-17.476562-7.875-23.039062v-65.816406c0-1.910157-.09375-3.804688-.277344-5.671876h157.953125c11.492187 0 20.835937 9.347657 20.835937 20.835938zm0 0"/><path d="m205.9375 424.367188c15.546875 0 28.195312-12.648438 28.195312-28.195313s-12.648437-28.195313-28.195312-28.195313-28.195312 12.648438-28.195312 28.195313 12.648437 28.195313 28.195312 28.195313zm0-41.390626c7.277344 0 13.195312 5.921876 13.195312 13.195313 0 7.277344-5.917968 13.195313-13.195312 13.195313-7.273438 0-13.195312-5.917969-13.195312-13.195313 0-7.273437 5.921874-13.195313 13.195312-13.195313zm0 0"/></g></defs><g fi:class="KUsePattern"><pattern id="pattern_L1_0" width="350" height="350" patternUnits="userSpaceOnUse"><use xlink:href="#L1_0" x="-350" y="-350"/><use xlink:href="#L1_0" x="0" y="-350"/><use xlink:href="#L1_0" x="350" y="-350"/><use xlink:href="#L1_0" x="-350" y="0"/><use xlink:href="#L1_0" x="0" y="0"/><use xlink:href="#L1_0" x="350" y="0"/><use xlink:href="#L1_0" x="-350" y="350"/><use xlink:href="#L1_0" x="0" y="350"/><use xlink:href="#L1_0" x="350" y="350"/></pattern><rect x="0" y="0" width="100%" height="100%" fill="url(#pattern_L1_0)"/></g><g fi:class="KUsePattern" transform="matrix(1 0 0 1 20 20)"><pattern id="pattern_UNKNOWN" width="350" height="350" patternUnits="userSpaceOnUse"><use xlink:href="#UNKNOWN" x="-350" y="-350"/><use xlink:href="#UNKNOWN" x="0" y="-350"/><use xlink:href="#UNKNOWN" x="350" y="-350"/><use xlink:href="#UNKNOWN" x="-350" y="0"/><use xlink:href="#UNKNOWN" x="0" y="0"/><use xlink:href="#UNKNOWN" x="350" y="0"/><use xlink:href="#UNKNOWN" x="-350" y="350"/><use xlink:href="#UNKNOWN" x="0" y="350"/><use xlink:href="#UNKNOWN" x="350" y="350"/></pattern><rect x="0" y="0" width="100%" height="100%" fill="url(#pattern_UNKNOWN)"/></g><g fi:class="KUsePattern"><pattern id="pattern_L1_1" width="350" height="350" patternUnits="userSpaceOnUse"><use xlink:href="#L1_1" x="-350" y="-350"/><use xlink:href="#L1_1" x="0" y="-350"/><use xlink:href="#L1_1" x="350" y="-350"/><use xlink:href="#L1_1" x="-350" y="0"/><use xlink:href="#L1_1" x="0" y="0"/><use xlink:href="#L1_1" x="350" y="0"/><use xlink:href="#L1_1" x="-350" y="350"/><use xlink:href="#L1_1" x="0" y="350"/><use xlink:href="#L1_1" x="350" y="350"/></pattern><rect x="0" y="0" width="100%" height="100%" fill="url(#pattern_L1_1)"/></g><g fi:class="KUsePattern"><pattern id="pattern_L1_2" width="350" height="350" patternUnits="userSpaceOnUse"><use xlink:href="#L1_2" x="-350" y="-350"/><use xlink:href="#L1_2" x="0" y="-350"/><use xlink:href="#L1_2" x="350" y="-350"/><use xlink:href="#L1_2" x="-350" y="0"/><use xlink:href="#L1_2" x="0" y="0"/><use xlink:href="#L1_2" x="350" y="0"/><use xlink:href="#L1_2" x="-350" y="350"/><use xlink:href="#L1_2" x="0" y="350"/><use xlink:href="#L1_2" x="350" y="350"/></pattern><rect x="0" y="0" width="100%" height="100%" fill="url(#pattern_L1_2)"/></g><g fi:class="KUsePattern"><pattern id="pattern_L1_3" width="350" height="350" patternUnits="userSpaceOnUse"><use xlink:href="#L1_3" x="-350" y="-350"/><use xlink:href="#L1_3" x="0" y="-350"/><use xlink:href="#L1_3" x="350" y="-350"/><use xlink:href="#L1_3" x="-350" y="0"/><use xlink:href="#L1_3" x="0" y="0"/><use xlink:href="#L1_3" x="350" y="0"/><use xlink:href="#L1_3" x="-350" y="350"/><use xlink:href="#L1_3" x="0" y="350"/><use xlink:href="#L1_3" x="350" y="350"/></pattern><rect x="0" y="0" width="100%" height="100%" fill="url(#pattern_L1_3)"/></g><g fi:class="KUsePattern"><pattern id="pattern_L1_4" width="350" height="350" patternUnits="userSpaceOnUse"><use xlink:href="#L1_4" x="-350" y="-350"/><use xlink:href="#L1_4" x="0" y="-350"/><use xlink:href="#L1_4" x="350" y="-350"/><use xlink:href="#L1_4" x="-350" y="0"/><use xlink:href="#L1_4" x="0" y="0"/><use xlink:href="#L1_4" x="350" y="0"/><use xlink:href="#L1_4" x="-350" y="350"/><use xlink:href="#L1_4" x="0" y="350"/><use xlink:href="#L1_4" x="350" y="350"/></pattern><rect x="0" y="0" width="100%" height="100%" fill="url(#pattern_L1_4)"/></g><g fi:class="KUsePattern"><pattern id="pattern_L1_5" width="350" height="350" patternUnits="userSpaceOnUse"><use xlink:href="#L1_5" x="-350" y="-350"/><use xlink:href="#L1_5" x="0" y="-350"/><use xlink:href="#L1_5" x="350" y="-350"/><use xlink:href="#L1_5" x="-350" y="0"/><use xlink:href="#L1_5" x="0" y="0"/><use xlink:href="#L1_5" x="350" y="0"/><use xlink:href="#L1_5" x="-350" y="350"/><use xlink:href="#L1_5" x="0" y="350"/><use xlink:href="#L1_5" x="350" y="350"/></pattern><rect x="0" y="0" width="100%" height="100%" fill="url(#pattern_L1_5)"/></g><g fi:class="KUsePattern"><pattern id="pattern_L1_6" width="350" height="350" patternUnits="userSpaceOnUse"><use xlink:href="#L1_6" x="-350" y="-350"/><use xlink:href="#L1_6" x="0" y="-350"/><use xlink:href="#L1_6" x="350" y="-350"/><use xlink:href="#L1_6" x="-350" y="0"/><use xlink:href="#L1_6" x="0" y="0"/><use xlink:href="#L1_6" x="350" y="0"/><use xlink:href="#L1_6" x="-350" y="350"/><use xlink:href="#L1_6" x="0" y="350"/><use xlink:href="#L1_6" x="350" y="350"/></pattern><rect x="0" y="0" width="100%" height="100%" fill="url(#pattern_L1_6)"/></g></svg>